# xmcd CD database file
#
# Track frame offsets:
#	150
#	5270
#	28057
#	42272
#	61298
#	74649
#	96660
#	125654
#
# Disc length: 1874 seconds
#
# Revision: 0
# Processed by: cddbd v1.5.1PL0 Copyright (c) Steve Scherf et al.
# Submitted via: CDex 1.51
#
DISCID=72075008
DTITLE=jumper - RHYTHMIC COURSE
DYEAR=1900
DGENRE=未分類 (日本)
TTITLE0=rc jingle
TTITLE1=rat
TTITLE2=texbox
TTITLE3=beep hop
TTITLE4=neutral day
TTITLE5=arc
TTITLE6=poisonia
TTITLE7=counts
EXTD=
EXTT0=
EXTT1=
EXTT2=
EXTT3=
EXTT4=
EXTT5=
EXTT6=
EXTT7=
PLAYORDER=
